<svg id="Capa_1" data-name="Capa 1" xmlns="http://www.w3.org/2000/svg" viewBox="0 0 1080 333"><defs><style>.cls-1{fill:#e51336;}</style></defs><path class="cls-1" d="M94.53,138.74l28.37,12,10,34.43L113.2,205.62,80.84,207.4a91.53,91.53,0,0,1-16.75-49l30.43-19.66Zm.7-8.39L82.9,98.46a92.21,92.21,0,0,1,40.9-30.33l28.2,23v30.51l-26.54,21.6L95.23,130.36ZM121,209.08l18.1-18.75H172l18.81,19.48-8.69,32.76a92.47,92.47,0,0,1-52.27,0L121,209.09Zm76.88-3.51-19-19.65,10.32-35.47,28-11.89,30.71,19.83a91.45,91.45,0,0,1-16.75,49l-33.31-1.83Zm19-75.56-30.6,13L160,121.59V91.08l28.2-23a92.21,92.21,0,0,1,40.9,30.33L216.9,130ZM156,254.33a100,100,0,1,0-100-100,100,100,0,0,0,100,100Z"/><path class="cls-1" d="M469.46,134.44,431.24,97c-.07-.83-.11-1.8-.11-2.77,0-22,18.26-39.87,40.78-39.87a41.11,41.11,0,0,1,29,11.86h0A39.43,39.43,0,0,1,513,94.56c0,22.07-18.3,40-40.88,40-.94,0-1.87,0-2.8-.09h.14Zm-142,72.93,94-91.82,28.92,28.28-94,91.92-28.82-28.38ZM313.1,235.65l21.56-21.18,14.52,14.19-21.67,21.18L313,235.65Zm97.6-31.27,20.43-20v69.94H410.7Z"/><path class="cls-1" d="M739.94,123.67a10.14,10.14,0,0,0,7.29-3,10.51,10.51,0,0,0,0-14.81,10.1,10.1,0,0,0-7.29-3,9.3,9.3,0,0,0-7,3,11.16,11.16,0,0,0,0,14.81A9.34,9.34,0,0,0,739.94,123.67Zm-49.75,0a9.32,9.32,0,0,0,7-3,11.13,11.13,0,0,0,0-14.81,9.29,9.29,0,0,0-7-3,10.07,10.07,0,0,0-7.28,3,10.49,10.49,0,0,0,0,14.81A10.11,10.11,0,0,0,690.19,123.67Zm-30-53.34H770V139q0,24.2-16,41t-39,16.79a52.84,52.84,0,0,1-24.88-6.42V159.73H740q0-6.42-7.28-11.11t-17.6-4.69q-10.34,0-17.61,4.69t-7.28,11.11V133.56h-30V70.33ZM600.06,175.51a9.73,9.73,0,0,0-7.29,3.21,10.78,10.78,0,0,0-3,7.66,9.9,9.9,0,0,0,3,7.41,10.14,10.14,0,0,0,7.29,3,9.34,9.34,0,0,0,7-3,10.34,10.34,0,0,0,2.81-7.41,11.29,11.29,0,0,0-2.81-7.66A9,9,0,0,0,600.06,175.51Zm49.75,0a9,9,0,0,0-7,3.21,11.25,11.25,0,0,0-2.82,7.66,10.31,10.31,0,0,0,2.82,7.41,9.32,9.32,0,0,0,7,3,10.11,10.11,0,0,0,7.28-3,9.87,9.87,0,0,0,3.06-7.41,10.74,10.74,0,0,0-3.06-7.66A9.71,9.71,0,0,0,649.81,175.51Zm-24.88,58.28q10.34,0,17.61-4.69T649.82,218H600.06q0,6.4,7.28,11.11t17.6,4.69ZM570,212.55V143.91H679.86v68.64q0,24.19-16,41t-39,16.79q-23,0-39-16.79t-16-41Z"/><path class="cls-1" d="M1017.87,130.44l1.84-1.69,3.21,3.52-3.69,3.37a9.79,9.79,0,0,0-1,13.78l3.21,3.51L896,267.57l-3.21-3.51a9.77,9.77,0,0,0-13.8-.29l-3.7,3.37L872,263.62l1.85-1.68a2.38,2.38,0,1,0-3.21-3.52l-1.85,1.69-3.21-3.52,1.85-1.68a2.39,2.39,0,1,0-3.22-3.52l-1.84,1.69-3.21-3.52,1.84-1.69a2.38,2.38,0,1,0-3.21-3.51L856,246l-3.22-3.51,1.85-1.69a2.38,2.38,0,1,0-3.21-3.52L849.55,239l-3.21-3.52,1.85-1.68a2.38,2.38,0,1,0-3.21-3.52L843.13,232l-3.21-3.52,1.85-1.68a2.39,2.39,0,1,0-3.22-3.52L836.71,225l-3.21-3.52,1.84-1.69a2.38,2.38,0,1,0-3.21-3.51l-1.84,1.68-3.21-3.51,3.69-3.37a9.79,9.79,0,0,0,1-13.78l-3.21-3.52L954.05,79.09l3.21,3.52a9.77,9.77,0,0,0,13.8.29l3.7-3.37L978,83l-1.85,1.69a2.38,2.38,0,1,0,3.21,3.51l1.85-1.68,3.21,3.51-1.85,1.69a2.39,2.39,0,1,0,3.22,3.52l1.84-1.69,3.21,3.52L989,98.79a2.38,2.38,0,1,0,3.21,3.52l1.84-1.69,3.22,3.52-1.85,1.69a2.38,2.38,0,1,0,3.21,3.51l1.85-1.68,3.21,3.51-1.85,1.69a2.38,2.38,0,1,0,3.21,3.51l1.85-1.68,3.21,3.51-1.85,1.69a2.39,2.39,0,1,0,3.22,3.52l1.84-1.69,3.21,3.52-1.84,1.68a2.38,2.38,0,1,0,3.21,3.52Zm-51.46-30.39a9.76,9.76,0,0,0-13.81-.29L849.23,194.17a9.76,9.76,0,0,0-1,13.77l35.32,38.68a9.78,9.78,0,0,0,13.81.29l103.37-94.41a9.77,9.77,0,0,0,1-13.78ZM997.56,149,894.18,243.39a4.88,4.88,0,0,1-6.9-.14L852,204.57a4.88,4.88,0,0,1,.48-6.89l103.38-94.41a4.88,4.88,0,0,1,6.9.15L998,142.1A4.88,4.88,0,0,1,997.56,149ZM885.13,193.54l-14.66,13.4,1.89,2.07,6.1-5.57L892.66,219l2.45-2.24-14.2-15.55,6.11-5.58-1.89-2.07Zm5.1-4.65-2.45,2.23,16.1,17.63,2.45-2.24Zm12.18-1.44A7,7,0,0,1,902,183a8.41,8.41,0,0,1,2.68-4.23,6.88,6.88,0,0,1,3.88-1.93,7.29,7.29,0,0,1,4.43,1.09l1.91-2.74a9.43,9.43,0,0,0-6.09-1.37,10.66,10.66,0,0,0-5.9,2.91,13,13,0,0,0-3.52,5.17,10.08,10.08,0,0,0-.3,6,13.62,13.62,0,0,0,3.28,5.81,15.53,15.53,0,0,0,5.3,3.83,9.92,9.92,0,0,0,5.92.76,12.34,12.34,0,0,0,5.92-3.28,10.63,10.63,0,0,0,3.51-6,10.49,10.49,0,0,0-1.23-6.91l-3,1.65a7.74,7.74,0,0,1,1.14,5.11,7.32,7.32,0,0,1-2.45,4.31,8.45,8.45,0,0,1-3.9,2,6.69,6.69,0,0,1-4.43-.55,14,14,0,0,1-4.27-3.3A13.78,13.78,0,0,1,902.41,187.45Zm26.94-34.29-3.32,3-1.22,17.11-8-8.72-2.45,2.24,16.09,17.62,2.45-2.24-5.58-6.11.48-5.57,14.72,2.9,3.23-2.95-17.67-3.08Zm31.09.12-11.35,10.37-5.48-6,10.23-9.34-1.9-2.08-10.22,9.34-4.93-5.4,10.91-10-1.89-2.07-13.37,12.21L948.53,168l13.81-12.6Zm3.11-31.35-14.67,13.4,1.89,2.07,6.1-5.57,14.2,15.55,2.45-2.24-14.2-15.55,6.12-5.58-1.9-2.07Z"/></svg>