<svg xmlns="http://www.w3.org/2000/svg" viewBox="0 0 281.5 281.5"><defs><style>.cls-1{fill:#fff;}.cls-2{fill:red;}</style></defs><g id="Capa_2" data-name="Capa 2"><rect class="cls-1" x="-12.03" y="-12.03" width="315" height="315"/></g><g id="Capa_1" data-name="Capa 1"><path class="cls-2" d="M140.67,221.24H86.79c-9,0-13.17-4.06-13.12-13s-.56-18.13.87-26.92c3.72-22.9,21.61-38.82,45.18-40.06a395.09,395.09,0,0,1,44.87.27c22.63,1.41,41.44,20.92,42.93,43.67.53,8.09.43,16.24.28,24.35-.14,7.58-4.47,11.64-12.12,11.67C177.34,221.28,159,221.23,140.67,221.24Z"/><path class="cls-2" d="M179.33,92.76a38.76,38.76,0,0,1-38.23,38.92c-21.2.25-38.82-17.32-38.84-38.74a38.56,38.56,0,0,1,77.12-.18Z"/></g></svg>